v 0.5 0.5 0
v 0 -0.5 0
v 0.472909 0.5 0.16235
v 0.5 0.5 0
v 0.472909 0.5 0.16235
v 0 0.5 0
v 0.472909 0.5 0.16235
v 0 -0.5 0
v 0.39457 0.5 0.307106
v 0.472909 0.5 0.16235
v 0.39457 0.5 0.307106
v 0 0.5 0
v 0.39457 0.5 0.307106
v 0 -0.5 0
v 0.273474 0.5 0.418583
v 0.39457 0.5 0.307106
v 0.273474 0.5 0.418583
v 0 0.5 0
v 0.273474 0.5 0.418583
v 0 -0.5 0
v 0.122743 0.5 0.4847
v 0.273474 0.5 0.418583
v 0.122743 0.5 0.4847
v 0 0.5 0
v 0.122743 0.5 0.4847
v 0 -0.5 0
v -0.0412897 0.5 0.498292
v 0.122743 0.5 0.4847
v -0.0412897 0.5 0.498292
v 0 0.5 0
v -0.0412897 0.5 0.498292
v 0 -0.5 0
v -0.200848 0.5 0.457887
v -0.0412897 0.5 0.498292
v -0.200848 0.5 0.457887
v 0 0.5 0
v -0.200848 0.5 0.457887
v 0 -0.5 0
v -0.338641 0.5 0.367862
v -0.200848 0.5 0.457887
v -0.338641 0.5 0.367862
v 0 0.5 0
v -0.338641 0.5 0.367862
v 0 -0.5 0
v -0.439737 0.5 0.237974
v -0.338641 0.5 0.367862
v -0.439737 0.5 0.237974
v 0 0.5 0
v -0.439737 0.5 0.237974
v 0 -0.5 0
v -0.493181 0.5 0.0822973
v -0.439737 0.5 0.237974
v -0.493181 0.5 0.0822973
v 0 0.5 0
v -0.493181 0.5 0.0822973
v 0 -0.5 0
v -0.493181 0.5 -0.0822973
v -0.493181 0.5 0.0822973
v -0.493181 0.5 -0.0822973
v 0 0.5 0
v -0.493181 0.5 -0.0822973
v 0 -0.5 0
v -0.439737 0.5 -0.237974
v -0.493181 0.5 -0.0822973
v -0.439737 0.5 -0.237974
v 0 0.5 0
v -0.439737 0.5 -0.237974
v 0 -0.5 0
v -0.338641 0.5 -0.367862
v -0.439737 0.5 -0.237974
v -0.338641 0.5 -0.367862
v 0 0.5 0
v -0.338641 0.5 -0.367862
v 0 -0.5 0
v -0.200848 0.5 -0.457887
v -0.338641 0.5 -0.367862
v -0.200848 0.5 -0.457887
v 0 0.5 0
v -0.200848 0.5 -0.457887
v 0 -0.5 0
v -0.0412895 0.5 -0.498292
v -0.200848 0.5 -0.457887
v -0.0412895 0.5 -0.498292
v 0 0.5 0
v -0.0412895 0.5 -0.498292
v 0 -0.5 0
v 0.122743 0.5 -0.4847
v -0.0412895 0.5 -0.498292
v 0.122743 0.5 -0.4847
v 0 0.5 0
v 0.122743 0.5 -0.4847
v 0 -0.5 0
v 0.273474 0.5 -0.418583
v 0.122743 0.5 -0.4847
v 0.273474 0.5 -0.418583
v 0 0.5 0
v 0.273474 0.5 -0.418583
v 0 -0.5 0
v 0.394571 0.5 -0.307106
v 0.273474 0.5 -0.418583
v 0.394571 0.5 -0.307106
v 0 0.5 0
v 0.394571 0.5 -0.307106
v 0 -0.5 0
v 0.472909 0.5 -0.162349
v 0.394571 0.5 -0.307106
v 0.472909 0.5 -0.162349
v 0 0.5 0
v 0.472909 0.5 -0.162349
v 0 -0.5 0
v 0.5 0.5 8.02679e-07
v 0.472909 0.5 -0.162349
v 0.5 0.5 8.02679e-07
v 0 0.5 0
vt 0 0
vt 0.0263158 1
vt 0.0526316 0
vt 0 0
vt 0.0526316 0
vt 0.0263158 0
vt 0.0526316 0
vt 0.0789474 1
vt 0.105263 0
vt 0.0526316 0
vt 0.105263 0
vt 0.0789474 0
vt 0.105263 0
vt 0.131579 1
vt 0.157895 0
vt 0.105263 0
vt 0.157895 0
vt 0.131579 0
vt 0.157895 0
vt 0.184211 1
vt 0.210526 0
vt 0.157895 0
vt 0.210526 0
vt 0.184211 0
vt 0.210526 0
vt 0.236842 1
vt 0.263158 0
vt 0.210526 0
vt 0.263158 0
vt 0.236842 0
vt 0.263158 0
vt 0.289474 1
vt 0.315789 0
vt 0.263158 0
vt 0.315789 0
vt 0.289474 0
vt 0.315789 0
vt 0.342105 1
vt 0.368421 0
vt 0.315789 0
vt 0.368421 0
vt 0.342105 0
vt 0.368421 0
vt 0.394737 1
vt 0.421053 0
vt 0.368421 0
vt 0.421053 0
vt 0.394737 0
vt 0.421053 0
vt 0.447368 1
vt 0.473684 0
vt 0.421053 0
vt 0.473684 0
vt 0.447368 0
vt 0.473684 0
vt 0.5 1
vt 0.526316 0
vt 0.473684 0
vt 0.526316 0
vt 0.5 0
vt 0.526316 0
vt 0.552632 1
vt 0.578947 0
vt 0.526316 0
vt 0.578947 0
vt 0.552632 0
vt 0.578947 0
vt 0.605263 1
vt 0.631579 0
vt 0.578947 0
vt 0.631579 0
vt 0.605263 0
vt 0.631579 0
vt 0.657895 1
vt 0.684211 0
vt 0.631579 0
vt 0.684211 0
vt 0.657895 0
vt 0.684211 0
vt 0.710526 1
vt 0.736842 0
vt 0.684211 0
vt 0.736842 0
vt 0.710526 0
vt 0.736842 0
vt 0.763158 1
vt 0.789474 0
vt 0.736842 0
vt 0.789474 0
vt 0.763158 0
vt 0.789474 0
vt 0.81579 1
vt 0.842105 0
vt 0.789474 0
vt 0.842105 0
vt 0.81579 0
vt 0.842105 0
vt 0.868421 1
vt 0.894737 0
vt 0.842105 0
vt 0.894737 0
vt 0.868421 0
vt 0.894737 0
vt 0.921053 1
vt 0.947369 0
vt 0.894737 0
vt 0.947369 0
vt 0.921053 0
vt 0.947369 0
vt 0.973684 1
vt 1 0
vt 0.947369 0
vt 1 0
vt 0.973684 0
vn 0.884628 -0.442314 0.147618
vn 0.884628 -0.442314 0.147618
vn 0.884628 -0.442314 0.147618
vn 0 1 0
vn 0 1 0
vn 0 1 0
vn 0.788765 -0.442314 0.426858
vn 0.788765 -0.442314 0.426858
vn 0.788765 -0.442314 0.426858
vn 0 1 0
vn 0 1 0
vn 0 1 0
vn 0.607427 -0.442314 0.659841
vn 0.607427 -0.442314 0.659841
vn 0.607427 -0.442314 0.659841
vn 0 1 0
vn 0 1 0
vn 0 1 0
vn 0.360265 -0.442314 0.821321
vn 0.360265 -0.442314 0.821321
vn 0.360265 -0.442314 0.821321
vn 0 1 0
vn 0 1 0
vn 0 1 0
vn 0.074062 -0.442314 0.893797
vn 0.074062 -0.442314 0.893797
vn 0.074062 -0.442314 0.893797
vn 0 1 0
vn 0 1 0
vn 0 1 0
vn -0.220166 -0.442314 0.869417
vn -0.220166 -0.442314 0.869417
vn -0.220166 -0.442314 0.869417
vn 0 1 0
vn 0 1 0
vn 0 1 0
vn -0.490536 -0.442314 0.750821
vn -0.490536 -0.442314 0.750821
vn -0.490536 -0.442314 0.750821
vn 0 1 0
vn 0 1 0
vn 0 1 0
vn -0.707749 -0.442314 0.550863
vn -0.707749 -0.442314 0.550863
vn -0.707749 -0.442314 0.550863
vn 0 1 0
vn 0 1 0
vn 0 1 0
vn -0.848266 -0.442314 0.29121
vn -0.848266 -0.442314 0.29121
vn -0.848266 -0.442314 0.29121
vn 0 1 0
vn 0 1 0
vn 0 1 0
vn -0.89686 -0.442314 0
vn -0.89686 -0.442314 0
vn -0.89686 -0.442314 0
vn 0 1 0
vn 0 1 0
vn 0 1 0
vn -0.848266 -0.442314 -0.29121
vn -0.848266 -0.442314 -0.29121
vn -0.848266 -0.442314 -0.29121
vn 0 1 0
vn 0 1 0
vn 0 1 0
vn -0.707749 -0.442314 -0.550863
vn -0.707749 -0.442314 -0.550863
vn -0.707749 -0.442314 -0.550863
vn 0 1 0
vn 0 1 0
vn 0 1 0
vn -0.490536 -0.442314 -0.750821
vn -0.490536 -0.442314 -0.750821
vn -0.490536 -0.442314 -0.750821
vn 0 1 0
vn 0 1 0
vn 0 1 0
vn -0.220166 -0.442314 -0.869417
vn -0.220166 -0.442314 -0.869417
vn -0.220166 -0.442314 -0.869417
vn 0 1 0
vn 0 1 0
vn 0 1 0
vn 0.0740626 -0.442314 -0.893797
vn 0.0740626 -0.442314 -0.893797
vn 0.0740626 -0.442314 -0.893797
vn 0 1 0
vn 0 1 0
vn 0 1 0
vn 0.360265 -0.442314 -0.82132
vn 0.360265 -0.442314 -0.82132
vn 0.360265 -0.442314 -0.82132
vn 0 1 0
vn 0 1 0
vn 0 1 0
vn 0.607428 -0.442314 -0.659841
vn 0.607428 -0.442314 -0.659841
vn 0.607428 -0.442314 -0.659841
vn 0 1 0
vn 0 1 0
vn 0 1 0
vn 0.788765 -0.442314 -0.426857
vn 0.788765 -0.442314 -0.426857
vn 0.788765 -0.442314 -0.426857
vn 0 1 0
vn 0 1 0
vn 0 1 0
vn 0.884628 -0.442314 -0.147617
vn 0.884628 -0.442314 -0.147617
vn 0.884628 -0.442314 -0.147617
vn 0 1 0
vn 0 1 0
vn 0 1 0
f 3/3/3 2/2/2 1/1/1
f 6/6/6 5/5/5 4/4/4
f 9/9/9 8/8/8 7/7/7
f 12/12/12 11/11/11 10/10/10
f 15/15/15 14/14/14 13/13/13
f 18/18/18 17/17/17 16/16/16
f 21/21/21 20/20/20 19/19/19
f 24/24/24 23/23/23 22/22/22
f 27/27/27 26/26/26 25/25/25
f 30/30/30 29/29/29 28/28/28
f 33/33/33 32/32/32 31/31/31
f 36/36/36 35/35/35 34/34/34
f 39/39/39 38/38/38 37/37/37
f 42/42/42 41/41/41 40/40/40
f 45/45/45 44/44/44 43/43/43
f 48/48/48 47/47/47 46/46/46
f 51/51/51 50/50/50 49/49/49
f 54/54/54 53/53/53 52/52/52
f 57/57/57 56/56/56 55/55/55
f 60/60/60 59/59/59 58/58/58
f 63/63/63 62/62/62 61/61/61
f 66/66/66 65/65/65 64/64/64
f 69/69/69 68/68/68 67/67/67
f 72/72/72 71/71/71 70/70/70
f 75/75/75 74/74/74 73/73/73
f 78/78/78 77/77/77 76/76/76
f 81/81/81 80/80/80 79/79/79
f 84/84/84 83/83/83 82/82/82
f 87/87/87 86/86/86 85/85/85
f 90/90/90 89/89/89 88/88/88
f 93/93/93 92/92/92 91/91/91
f 96/96/96 95/95/95 94/94/94
f 99/99/99 98/98/98 97/97/97
f 102/102/102 101/101/101 100/100/100
f 105/105/105 104/104/104 103/103/103
f 108/108/108 107/107/107 106/106/106
f 111/111/111 110/110/110 109/109/109
f 114/114/114 113/113/113 112/112/112